<?xml version="1.0"?>
<svg xmlns="http://www.w3.org/2000/svg" xmlns:xlink="http://www.w3.org/1999/xlink" version="1.1" id="Layer_1" x="0px" y="0px" viewBox="0 0 512 512" style="enable-background:new 0 0 512 512;" xml:space="preserve" width="512px" height="512px" class=""><g><g><circle style="fill:#8A2BE2" cx="256" cy="256" r="256" data-original="#8A2BE2" class="" data-old_color="#FABC3D"/><path style="fill:#FFE4C4" d="M269.964,107.055c-7.713,0-13.964,6.251-13.964,13.964V204.8c0,7.713-6.251,13.964-13.964,13.964  H121.018c-7.713,0-13.964,6.251-13.964,13.964v158.255c0,7.713,6.251,13.964,13.964,13.964h269.964  c7.713,0,13.964-6.251,13.964-13.964V121.018c0-7.713-6.251-13.964-13.964-13.964H269.964z" data-original="#FFE4C4" class="" data-old_color="#FFFFFF"/><g>
	<path style="fill:#3D546B" d="M349.091,269.964v65.164c0,5.143-4.166,9.309-9.309,9.309h-46.545v-18.618L256,353.745   l37.236,27.927v-18.618h55.855c10.282,0,18.618-8.336,18.618-18.618v-74.473H349.091z" data-original="#3D546B" class="active-path" data-old_color="#5B5C5F"/>
	<path style="fill:#3D546B" d="M159.423,281.875h16.612v8.974h-16.612v6.135h18.06v9.784h-28.537v-40.983h28.537v9.723h-18.06   V281.875z" data-original="#3D546B" class="active-path" data-old_color="#5B5C5F"/>
	<path style="fill:#3D546B" d="M182.975,265.784h9.84l9.9,17.482l3.472,8.22l0.289-0.056c-0.056,0-1.098-7.061-1.159-7.061v-18.581   h10.305v40.983h-10.477l-9.263-16.151l-3.589-8.22l-0.289,0.056l1.331,7.931v16.384h-10.361L182.975,265.784L182.975,265.784z" data-original="#3D546B" class="active-path" data-old_color="#5B5C5F"/>
	<path style="fill:#3D546B" d="M241.026,275.568v31.199h-10.477v-31.199h-10.882v-9.84h32.242v9.84H241.026z" data-original="#3D546B" class="active-path" data-old_color="#5B5C5F"/>
	<path style="fill:#3D546B" d="M266.431,281.875h16.612v8.974h-16.612v6.135h18.06v9.784h-28.537v-40.983h28.537v9.723h-18.06   V281.875z" data-original="#3D546B" class="active-path" data-old_color="#5B5C5F"/>
	<path style="fill:#3D546B" d="M302.317,293.744h-1.853v13.023h-10.477v-40.983h16.384c8.453,0,14.992,3.877,15.225,13.489   c0,7.582-3.067,11.864-8.043,13.428l11.171,14.066h-12.916L302.317,293.744z M306.539,284.83c6.54,0,6.54-9.379,0-9.379h-6.079   v9.379H306.539z" data-original="#3D546B" class="active-path" data-old_color="#5B5C5F"/>
</g></g></g> </svg>
